<svg width="212" height="104" viewBox="0 0 212 104" fill="none" xmlns="http://www.w3.org/2000/svg">
<mask id="path-1-inside-1_20_51" fill="white">
<path fill-rule="evenodd" clip-rule="evenodd" d="M205.921 78.6959C193.427 101.994 164.412 110.753 141.114 98.259C135.215 95.0953 130.247 90.8721 126.321 85.9507C111.799 97.6428 91.1212 100.22 73.6561 90.8543C65.3886 86.4208 58.9519 79.9069 54.6461 72.3062C44.5691 75.6597 32.713 74.8507 22.0577 69.1368C2.69591 58.7539 -5.36919 36.1072 4.04383 18.5539C13.4569 1.00058 36.7835 -4.81223 56.1453 5.57063C59.571 7.40768 62.6431 9.62866 65.3273 12.1374C79.8864 -0.190289 101.068 -3.07787 118.9 6.48465C124.799 9.64839 129.767 13.8715 133.693 18.793C148.215 7.10084 168.893 4.52366 186.358 13.8894C209.656 26.383 218.415 55.3979 205.921 78.6959Z"/>
</mask>
<path fill-rule="evenodd" clip-rule="evenodd" d="M205.921 78.6959C193.427 101.994 164.412 110.753 141.114 98.259C135.215 95.0953 130.247 90.8721 126.321 85.9507C111.799 97.6428 91.1212 100.22 73.6561 90.8543C65.3886 86.4208 58.9519 79.9069 54.6461 72.3062C44.5691 75.6597 32.713 74.8507 22.0577 69.1368C2.69591 58.7539 -5.36919 36.1072 4.04383 18.5539C13.4569 1.00058 36.7835 -4.81223 56.1453 5.57063C59.571 7.40768 62.6431 9.62866 65.3273 12.1374C79.8864 -0.190289 101.068 -3.07787 118.9 6.48465C124.799 9.64839 129.767 13.8715 133.693 18.793C148.215 7.10084 168.893 4.52366 186.358 13.8894C209.656 26.383 218.415 55.3979 205.921 78.6959Z" fill="white"/>
<path d="M126.321 85.9507L127.103 85.327L126.476 84.5418L125.694 85.1717L126.321 85.9507ZM54.6461 72.3062L55.5162 71.8133L55.1108 71.0977L54.3304 71.3574L54.6461 72.3062ZM65.3273 12.1374L64.6445 12.868L65.2945 13.4755L65.9735 12.9006L65.3273 12.1374ZM133.693 18.793L132.911 19.4166L133.537 20.2019L134.32 19.5719L133.693 18.793ZM140.642 99.1403C164.426 111.895 194.047 102.953 206.802 79.1685L205.04 78.2234C192.807 101.035 164.398 109.61 141.587 97.3777L140.642 99.1403ZM125.539 86.5743C129.548 91.5997 134.62 95.9113 140.642 99.1403L141.587 97.3777C135.809 94.2792 130.946 90.1445 127.103 85.327L125.539 86.5743ZM73.1835 91.7356C91.0149 101.298 112.124 98.6646 126.948 86.7296L125.694 85.1717C111.474 96.621 91.2276 99.1423 74.1287 89.973L73.1835 91.7356ZM53.776 72.7991C58.1722 80.5593 64.7446 87.2102 73.1835 91.7356L74.1287 89.973C66.0326 85.6314 59.7316 79.2544 55.5162 71.8133L53.776 72.7991ZM54.3304 71.3574C44.5194 74.6223 32.9482 73.8421 22.5303 68.2555L21.5851 70.0181C32.4779 75.8593 44.6188 76.6971 54.9619 73.2551L54.3304 71.3574ZM22.5303 68.2555C3.57191 58.089 -4.18437 36.0137 4.92511 19.0265L3.16255 18.0813C-6.55402 36.2007 1.8199 59.4189 21.5851 70.0181L22.5303 68.2555ZM4.92511 19.0265C14.0346 2.03921 36.7143 -3.71461 55.6727 6.45191L56.6179 4.68934C36.8527 -5.90984 12.8791 -0.038058 3.16255 18.0813L4.92511 19.0265ZM55.6727 6.45191C59.0219 8.24791 62.0233 10.4182 64.6445 12.868L66.0101 11.4068C63.2629 8.83914 60.1202 6.56745 56.6179 4.68934L55.6727 6.45191ZM119.372 5.60337C101.166 -4.15967 79.5429 -1.20977 64.6811 11.3742L65.9735 12.9006C80.2298 0.829193 100.969 -1.99607 118.427 7.36594L119.372 5.60337ZM134.474 18.1694C130.465 13.1439 125.394 8.83233 119.372 5.60337L118.427 7.36594C124.205 10.4644 129.068 14.5992 132.911 19.4166L134.474 18.1694ZM186.83 13.0081C168.999 3.44598 147.89 6.07903 133.066 18.0141L134.32 19.5719C148.54 8.12267 168.786 5.60134 185.885 14.7707L186.83 13.0081ZM206.802 79.1685C219.557 55.3838 210.615 25.7628 186.83 13.0081L185.885 14.7707C208.697 27.0033 217.272 55.412 205.04 78.2234L206.802 79.1685Z" fill="#B8B8B8" mask="url(#path-1-inside-1_20_51)"/>
</svg>
