<svg width="472" height="289" viewBox="0 0 472 289" fill="none" xmlns="http://www.w3.org/2000/svg">
<mask id="path-1-inside-1_20_49" fill="white">
<path fill-rule="evenodd" clip-rule="evenodd" d="M472 109.5C472 169.975 422.975 219 362.5 219C347.186 219 332.606 215.856 319.371 210.179C302.734 249.45 263.835 277 218.5 277C197.04 277 177.022 270.827 160.124 260.159C143.435 277.813 118.658 289 91 289C40.7421 289 0 252.063 0 206.5C0 160.937 40.7421 124 91 124C99.8922 124 108.486 125.156 116.61 127.312C132.633 86.72 172.213 58 218.5 58C233.814 58 248.394 61.1437 261.629 66.8209C278.266 27.5499 317.165 0 362.5 0C422.975 0 472 49.0248 472 109.5Z"/>
</mask>
<path fill-rule="evenodd" clip-rule="evenodd" d="M472 109.5C472 169.975 422.975 219 362.5 219C347.186 219 332.606 215.856 319.371 210.179C302.734 249.45 263.835 277 218.5 277C197.04 277 177.022 270.827 160.124 260.159C143.435 277.813 118.658 289 91 289C40.7421 289 0 252.063 0 206.5C0 160.937 40.7421 124 91 124C99.8922 124 108.486 125.156 116.61 127.312C132.633 86.72 172.213 58 218.5 58C233.814 58 248.394 61.1437 261.629 66.8209C278.266 27.5499 317.165 0 362.5 0C422.975 0 472 49.0248 472 109.5Z" fill="white"/>
<path d="M319.371 210.179L319.765 209.26L318.842 208.864L318.45 209.789L319.371 210.179ZM160.124 260.159L160.658 259.313L159.963 258.874L159.398 259.472L160.124 260.159ZM116.61 127.312L116.353 128.279L117.213 128.507L117.54 127.679L116.61 127.312ZM261.629 66.8209L261.235 67.7399L262.158 68.1359L262.55 67.211L261.629 66.8209ZM362.5 220C423.527 220 473 170.527 473 109.5H471C471 169.423 422.423 218 362.5 218V220ZM318.977 211.098C332.334 216.828 347.048 220 362.5 220V218C347.324 218 332.878 214.885 319.765 209.26L318.977 211.098ZM218.5 278C264.25 278 303.504 250.197 320.292 210.569L318.45 209.789C301.965 248.703 263.419 276 218.5 276V278ZM159.59 261.004C176.643 271.77 196.845 278 218.5 278V276C197.234 276 177.4 269.883 160.658 259.313L159.59 261.004ZM159.398 259.472C142.9 276.923 118.389 288 91 288V290C118.928 290 143.969 278.704 160.851 260.846L159.398 259.472ZM91 288C41.1998 288 1 251.421 1 206.5H-1C-1 252.706 40.2843 290 91 290V288ZM1 206.5C1 161.579 41.1998 125 91 125V123C40.2843 123 -1 160.294 -1 206.5H1ZM91 125C99.8053 125 108.313 126.145 116.353 128.279L116.866 126.345C108.66 124.168 99.979 123 91 123V125ZM218.5 57C171.788 57 131.849 85.9838 115.68 126.945L117.54 127.679C133.418 87.4561 172.637 59 218.5 59V57ZM262.023 65.9019C248.666 60.1722 233.952 57 218.5 57V59C233.676 59 248.122 62.1151 261.235 67.7399L262.023 65.9019ZM362.5 -1C316.75 -1 277.496 26.8032 260.708 66.4308L262.55 67.211C279.035 28.2966 317.581 1 362.5 1V-1ZM473 109.5C473 48.4725 423.527 -1 362.5 -1V1C422.423 1 471 49.5771 471 109.5H473Z" fill="#B8B8B8" mask="url(#path-1-inside-1_20_49)"/>
</svg>
