<svg width="243" height="168" viewBox="0 0 243 168" fill="none" xmlns="http://www.w3.org/2000/svg">
<mask id="path-1-inside-1_20_50" fill="white">
<path fill-rule="evenodd" clip-rule="evenodd" d="M205.965 59.8842C206.829 55.1128 207.008 50.1339 206.407 45.0678C203.154 17.6458 178.287 -1.94731 150.865 1.30537C131.181 3.64028 115.53 17.1129 109.469 34.6734C101.411 30.9904 92.2737 29.4025 82.8331 30.5223C61.2416 33.0834 44.5038 49.0444 39.95 69.1018C15.2232 74.621 -1.79859 98.0786 1.25013 123.781C4.50281 151.203 29.3695 170.796 56.7915 167.544C67.0269 166.329 76.1715 162.104 83.4445 155.859C93.6076 164.249 107.05 168.631 121.171 166.956C136.831 165.099 149.939 156.191 157.695 143.785C168.139 154.032 182.967 159.626 198.628 157.769C226.05 154.516 245.643 129.649 242.39 102.227C239.921 81.4147 225.002 65.112 205.965 59.8842Z"/>
</mask>
<path fill-rule="evenodd" clip-rule="evenodd" d="M205.965 59.8842C206.829 55.1128 207.008 50.1339 206.407 45.0678C203.154 17.6458 178.287 -1.94731 150.865 1.30537C131.181 3.64028 115.53 17.1129 109.469 34.6734C101.411 30.9904 92.2737 29.4025 82.8331 30.5223C61.2416 33.0834 44.5038 49.0444 39.95 69.1018C15.2232 74.621 -1.79859 98.0786 1.25013 123.781C4.50281 151.203 29.3695 170.796 56.7915 167.544C67.0269 166.329 76.1715 162.104 83.4445 155.859C93.6076 164.249 107.05 168.631 121.171 166.956C136.831 165.099 149.939 156.191 157.695 143.785C168.139 154.032 182.967 159.626 198.628 157.769C226.05 154.516 245.643 129.649 242.39 102.227C239.921 81.4147 225.002 65.112 205.965 59.8842Z" fill="white"/>
<path d="M205.965 59.8842L204.981 59.7061L204.818 60.6063L205.7 60.8485L205.965 59.8842ZM206.407 45.0678L205.414 45.1856L206.407 45.0678ZM150.865 1.30537L150.983 2.29841L150.865 1.30537ZM109.469 34.6734L109.053 35.5828L110.055 36.0407L110.414 34.9996L109.469 34.6734ZM82.8331 30.5223L82.9509 31.5153L82.8331 30.5223ZM39.95 69.1018L40.1679 70.0778L40.7852 69.94L40.9252 69.3232L39.95 69.1018ZM1.25013 123.781L0.257088 123.899L1.25013 123.781ZM56.7915 167.544L56.9093 168.537L56.7915 167.544ZM83.4445 155.859L84.0812 155.088L83.4319 154.552L82.7931 155.1L83.4445 155.859ZM121.171 166.956L121.053 165.963L121.171 166.956ZM157.695 143.785L158.396 143.071L157.507 142.199L156.848 143.254L157.695 143.785ZM198.628 157.769L198.745 158.762L198.628 157.769ZM242.39 102.227L241.397 102.345L242.39 102.227ZM206.949 60.0624C207.83 55.1943 208.013 50.1157 207.4 44.95L205.414 45.1856C206.003 50.152 205.827 55.0312 204.981 59.7061L206.949 60.0624ZM207.4 44.95C204.082 16.9796 178.718 -3.0054 150.748 0.312328L150.983 2.29841C177.857 -0.88922 202.226 18.312 205.414 45.1856L207.4 44.95ZM150.748 0.312328C130.668 2.69412 114.705 16.4379 108.523 34.3471L110.414 34.9996C116.355 17.7879 131.694 4.58645 150.983 2.29841L150.748 0.312328ZM109.884 33.7639C101.665 30.0068 92.3432 28.3872 82.7153 29.5292L82.9509 31.5153C92.2043 30.4177 101.158 31.974 109.053 35.5828L109.884 33.7639ZM82.7153 29.5292C60.6905 32.1417 43.6194 48.4232 38.9748 68.8804L40.9252 69.3232C45.3882 49.6655 61.7928 34.025 82.9509 31.5153L82.7153 29.5292ZM39.7322 68.1259C14.5097 73.7557 -2.85268 97.6818 0.257088 123.899L2.24316 123.663C-0.744504 98.4755 15.9366 75.4864 40.1679 70.0778L39.7322 68.1259ZM0.257088 123.899C3.57482 151.869 28.9389 171.854 56.9093 168.537L56.6738 166.551C29.8002 169.738 5.43079 150.537 2.24316 123.663L0.257088 123.899ZM56.9093 168.537C67.348 167.298 76.677 162.988 84.096 156.617L82.7931 155.1C75.666 161.22 66.7058 165.361 56.6738 166.551L56.9093 168.537ZM82.8079 156.63C93.1729 165.186 106.886 169.658 121.288 167.949L121.053 165.963C107.215 167.605 94.0424 163.311 84.0812 155.088L82.8079 156.63ZM121.288 167.949C137.263 166.054 150.633 156.967 158.543 144.315L156.848 143.254C149.245 155.415 136.4 164.143 121.053 165.963L121.288 167.949ZM198.51 156.776C183.163 158.596 168.633 153.116 158.396 143.071L156.995 144.498C167.646 154.949 182.771 160.657 198.745 158.762L198.51 156.776ZM241.397 102.345C244.585 129.219 225.383 153.588 198.51 156.776L198.745 158.762C226.716 155.444 246.701 130.08 243.383 102.109L241.397 102.345ZM205.7 60.8485C224.359 65.9723 238.978 81.9503 241.397 102.345L243.383 102.109C240.865 80.8791 225.646 64.2517 206.23 58.9199L205.7 60.8485Z" fill="#B8B8B8" mask="url(#path-1-inside-1_20_50)"/>
</svg>
