<svg width="465" height="299" viewBox="0 0 465 299" fill="none" xmlns="http://www.w3.org/2000/svg">
<mask id="path-1-inside-1_20_84" fill="white">
<path fill-rule="evenodd" clip-rule="evenodd" d="M79.1177 89.5566C78.2276 81.4867 78.6876 73.2013 80.6602 64.9174C91.3377 20.0773 142.291 -7.74182 194.468 2.78171C231.923 10.3359 259.827 35.5945 268.642 65.8334C284.722 61.2374 302.54 60.3159 320.503 63.9389C361.586 72.2248 391.178 101.811 396.692 135.907C443.324 149.682 472.251 191.746 462.243 233.775C451.566 278.615 400.612 306.434 348.435 295.91C328.96 291.983 312.067 283.268 299.097 271.556C278.211 283.559 251.668 288.306 224.801 282.887C195.002 276.877 171.249 259.661 158.344 237.646C136.618 252.677 107.218 259.172 77.4195 253.162C25.2425 242.639 -8.39957 197.758 2.27794 152.918C10.3818 118.885 41.6863 94.6577 79.1177 89.5566Z"/>
</mask>
<path fill-rule="evenodd" clip-rule="evenodd" d="M79.1177 89.5566C78.2276 81.4867 78.6876 73.2013 80.6602 64.9174C91.3377 20.0773 142.291 -7.74182 194.468 2.78171C231.923 10.3359 259.827 35.5945 268.642 65.8334C284.722 61.2374 302.54 60.3159 320.503 63.9389C361.586 72.2248 391.178 101.811 396.692 135.907C443.324 149.682 472.251 191.746 462.243 233.775C451.566 278.615 400.612 306.434 348.435 295.91C328.96 291.983 312.067 283.268 299.097 271.556C278.211 283.559 251.668 288.306 224.801 282.887C195.002 276.877 171.249 259.661 158.344 237.646C136.618 252.677 107.218 259.172 77.4195 253.162C25.2425 242.639 -8.39957 197.758 2.27794 152.918C10.3818 118.885 41.6863 94.6577 79.1177 89.5566Z" fill="white"/>
<path d="M79.1177 89.5566L80.1117 89.4469L80.2186 90.4158L79.2527 90.5474L79.1177 89.5566ZM80.6602 64.9174L79.6874 64.6857L80.6602 64.9174ZM194.468 2.78171L194.666 1.80145L194.468 2.78171ZM268.642 65.8334L268.917 66.7949L267.961 67.0683L267.682 66.1132L268.642 65.8334ZM320.503 63.9389L320.305 64.9191L320.503 63.9389ZM396.692 135.907L396.409 136.866L395.805 136.687L395.705 136.066L396.692 135.907ZM462.243 233.775L461.271 233.543L462.243 233.775ZM348.435 295.91L348.633 294.93L348.435 295.91ZM299.097 271.556L298.599 270.689L299.228 270.327L299.767 270.813L299.097 271.556ZM224.801 282.887L224.998 281.907L224.801 282.887ZM158.344 237.646L157.775 236.824L158.661 236.211L159.207 237.141L158.344 237.646ZM77.4195 253.162L77.2219 254.143L77.4195 253.162ZM2.27794 152.918L3.25076 153.149L3.25073 153.149L2.27794 152.918ZM78.1237 89.6662C77.2212 81.4838 77.6878 73.083 79.6874 64.6857L81.633 65.149C79.6874 73.3197 79.234 81.4896 80.1117 89.4469L78.1237 89.6662ZM79.6874 64.6857C90.5183 19.2012 142.091 -8.80232 194.666 1.80145L194.271 3.76197C142.491 -6.68131 92.157 20.9533 81.6329 65.149L79.6874 64.6857ZM194.666 1.80145C232.439 9.41978 260.67 34.914 269.602 65.5535L267.682 66.1132C258.984 36.275 231.408 11.2521 194.271 3.76197L194.666 1.80145ZM268.367 64.8719C284.6 60.2323 302.58 59.3039 320.7 62.9586L320.305 64.9191C302.5 61.328 284.844 62.2426 268.917 66.7949L268.367 64.8719ZM320.7 62.9586C362.127 71.3139 392.088 101.179 397.679 135.747L395.705 136.066C390.267 102.444 361.045 73.1358 320.305 64.9191L320.7 62.9586ZM396.975 134.948C443.991 148.836 473.376 191.342 463.216 234.006L461.271 233.543C471.127 192.151 442.656 150.528 396.409 136.866L396.975 134.948ZM463.216 234.006C452.385 279.491 400.812 307.494 348.237 296.891L348.633 294.93C400.412 305.374 450.747 277.739 461.271 233.543L463.216 234.006ZM348.237 296.891C328.591 292.928 311.534 284.134 298.427 272.298L299.767 270.813C312.6 282.402 329.329 291.037 348.633 294.93L348.237 296.891ZM299.595 272.423C278.494 284.549 251.704 289.334 224.603 283.868L224.998 281.907C251.632 287.279 277.927 282.568 298.599 270.689L299.595 272.423ZM224.603 283.868C194.546 277.805 170.54 260.43 157.481 238.152L159.207 237.141C171.957 258.892 195.458 275.949 224.998 281.907L224.603 283.868ZM77.6173 252.182C107.158 258.14 136.28 251.695 157.775 236.824L158.913 238.469C136.956 253.659 107.278 260.205 77.2219 254.143L77.6173 252.182ZM3.25073 153.149C-7.26388 197.305 25.8504 241.741 77.6173 252.182L77.2219 254.143C24.6346 243.536 -9.53525 198.21 1.30515 152.686L3.25073 153.149ZM79.2527 90.5474C42.1382 95.6054 11.239 119.602 3.25076 153.149L1.30515 152.686C9.52465 118.168 41.2345 93.7101 78.9827 88.5657L79.2527 90.5474Z" fill="#B8B8B8" mask="url(#path-1-inside-1_20_84)"/>
</svg>
